{"title":"Hand Of God S01E10 WEB-DL x264-NoGRP","uid":12367168,"size":596225759,"categoryP":"other","categoryS":"other","magnet":"?xt=urn:btih:b76d1e2f8cfb410a20d23d8983255f07c87f43ab&amp;dn=Hand+Of+God+S01E10+WEB-DL+x264-NoGRP&amp;tr=udp%3A%2F%2Ftracker.openbittorrent.com%3A80&amp;tr=udp%3A%2F%2Fopen.demonii.com%3A1337&amp;tr=udp%3A%2F%2Ftracker.coppersurfer.tk%3A6969&amp;tr=udp%3A%2F%2Fexodus.desync.com%3A6969","seeders":6,"leechers":0,"uploader":"toots2boots","files":1,"time":1441614751,"description":"General\nComplete name                            : M:PostsHand Of God S01E10 WEB-DL x264-NoGRPHand.Of.God.S01E10.WEB-DL.x264-NoGRP.mp4\nFormat                                   : MPEG-4\nFormat profile                           : Base Media\nCodec ID                                 : isom\nFile size                                : 569 MiB\nDuration                                 : 1h 0mn\nOverall bit rate                         : 1 323 Kbps\nMovie name                               :Hand of God: Season 1, Episode 10 &quot;The Tie That Binds&quot; - 05.09.2015, 06:36\nPerformer                                : Amazon\nGenre                                    : Capture\nRecorded date                            : 0\nWriting application                      : Lavf56.40.101\n\nVideo\nID                                       : 1\nFormat                                   : AVC\nFormat/Info                              : Advanced Video Codec\nFormat profile                           : &lt;a class=&quot;__cf_email__&quot; href=&quot;/cdn-cgi/l/email-protection&quot; data-cfemail=&quot;7038191718303c435e40&quot;&gt;[email&amp;#160;protected]&lt;/a&gt;&lt;script data-cfhash='f9e31' type=&quot;text/javascript&quot;&gt;\n/* &lt;![CDATA[ */!function(){try{var t=&quot;currentScript&quot;in document?document.currentScript:function(){for(var t=document.getElementsByTagName(&quot;script&quot;),e=t.length;e--;)if(t[e].getAttribute(&quot;data-cfhash&quot;))return t[e]}();if(t&amp;&amp;t.previousSibling){var e,r,n,i,c=t.previousSibling,a=c.getAttribute(&quot;data-cfemail&quot;);if(a){for(e=&quot;&quot;,r=parseInt(a.substr(0,2),16),n=2;a.length-n;n+=2)i=parseInt(a.substr(n,2),16)^r,e+=String.fromCharCode(i);e=document.createTextNode(e),c.parentNode.replaceChild(e,c)}t.parentNode.removeChild(t);}}catch(u){}}()/* ]]&gt; */&lt;/script&gt;\nFormat settings, CABAC                   : Yes\nFormat settings, ReFrames                : 4 frames\nCodec ID                                 : avc1\nCodec ID/Info                            : Advanced Video Coding\nDuration                                 : 1h 0mn\nBit rate                                 : 1 200 Kbps\nWidth                                    : 848 pixels\nHeight                                   : 480 pixels\nDisplay aspect ratio                     : 16:9\nFrame rate mode                          : Constant\nFrame rate                               : 25.000 fps\nColor space                              : YUV\nChroma subsampling                       : 4:2:0\nBit depth                                : 8 bits\nScan type                                : Progressive\nBits/(Pixel*Frame)                       : 0.118\nStream size                              : 511 MiB (90%)\nWriting library                          : x264 core 120 r2151 a3f4407\nEncoding settings                        : cabac=1 / ref=3 / deblock=1:0:0 / analyse=0x3:0x113 / me=hex / subme=7 / psy=1 / psy_rd=1.00:0.00 / mixed_ref=1 / me_range=16 / chroma_me=1 / trellis=1 / 8x8dct=1 / cqm=0 / deadzone=21,11 / fast_pskip=1 / chroma_qp_offset=-2 / threads=16 / sliced_threads=0 / nr=0 / decimate=1 / interlaced=0 / bluray_compat=0 / constrained_intra=0 / bframes=3 / b_pyramid=2 / b_adapt=1 / b_bias=0 / direct=1 / weightb=1 / open_gop=0 / weightp=2 / keyint=25 / keyint_min=2 / scenecut=40 / intra_refresh=0 / rc_lookahead=25 / rc=abr / mbtree=1 / bitrate=1200 / ratetol=1.0 / qcomp=0.60 / qpmin=0 / qpmax=69 / qpstep=4 / ip_ratio=1.40 / aq=1:1.00\n\nAudio\nID                                       : 2\nFormat                                   : AAC\nFormat/Info                              : Advanced Audio Codec\nFormat profile                           : LC\nCodec ID                                 : 40\nDuration                                 : 1h 0mn\nDuration_LastFrame                       : -8ms\nBit rate mode                            : Constant\nBit rate                                 : 128 Kbps\nChannel(s)                               : 2 channels\nChannel positions                        : Front: L R\nSampling rate                            : 48.0 KHz\nCompression mode                         : Lossy\nStream size                              : 55.0 MiB (10%)\nLanguage                                 : English","torrent":{"xt":"urn:btih:b76d1e2f8cfb410a20d23d8983255f07c87f43ab","amp;dn":"Hand+Of+God+S01E10+WEB-DL+x264-NoGRP","amp;tr":["udp%3A%2F%2Ftracker.openbittorrent.com%3A80","udp%3A%2F%2Fopen.demonii.com%3A1337","udp%3A%2F%2Ftracker.coppersurfer.tk%3A6969","udp%3A%2F%2Fexodus.desync.com%3A6969"],"infoHash":"b76d1e2f8cfb410a20d23d8983255f07c87f43ab","infoHashBuffer":{"type":"Buffer","data":[183,109,30,47,140,251,65,10,32,210,61,137,131,37,95,7,200,127,67,171]},"announce":[],"urlList":[]}}